<svg width="162.158" height="75.098" viewBox="0 0 162.158 75.098" xmlns="http://www.w3.org/2000/svg">
    <g id="svgGroup" stroke-linecap="round" fill-rule="evenodd" font-size="9pt" stroke="#000000" stroke-width="0.25mm"
       fill="#000000" style="stroke:#000000;stroke-width:0.25mm;fill:#000000">
        <path d="M 162.158 5.078 L 162.158 17.773 L 134.18 17.773 L 134.18 75.098 L 121.484 75.098 L 121.484 17.773 L 93.457 17.773 L 93.457 5.078 L 162.158 5.078 Z M 63.574 5.078 L 63.574 17.773 L 12.695 17.773 L 12.695 75.098 L 0 75.098 L 0 11.475 A 6.409 6.409 0 0 1 0.488 8.984 Q 0.977 7.813 1.831 6.934 A 6.022 6.022 0 0 1 3.858 5.566 A 6.434 6.434 0 0 1 6.058 5.086 A 7.46 7.46 0 0 1 6.397 5.078 L 63.574 5.078 Z M 85.303 22.314 L 85.303 75.098 L 72.608 75.098 L 72.608 22.314 L 85.303 22.314 Z M 57.91 33.691 L 57.91 46.484 L 17.774 46.484 L 17.774 33.691 L 57.91 33.691 Z M 85.303 0 L 85.303 11.475 L 72.608 11.475 L 72.608 0 L 85.303 0 Z"
              vector-effect="non-scaling-stroke"/>
    </g>
</svg>